Coordinates
version=1
nRows=15
nColumns=34
inDegrees=yes

Units are S.I. units (second, meters, Newtons, ...)
If the header above contains a line with 'inDegrees', this indicates whether rotational values are in degrees (yes) or radians (no).

endheader
time	pelvis_tilt	pelvis_list	pelvis_rotation	pelvis_tx	pelvis_ty	pelvis_tz	hip_flexion_r	hip_adduction_r	hip_rotation_r	knee_angle_r	ankle_angle_r	subtalar_angle_r	mtp_angle_r	hip_flexion_l	hip_adduction_l	hip_rotation_l	knee_angle_l	ankle_angle_l	subtalar_angle_l	mtp_angle_l	lumbar_extension	lumbar_bending	lumbar_rotation	arm_flex_r	arm_add_r	arm_rot_r	elbow_flex_r	pro_sup_r	arm_flex_l	arm_add_l	arm_rot_l	elbow_flex_l	pro_sup_l
      0.00000000	      0.32232943	     -6.04669250	   -168.14901718	      0.25482754	      1.04289199	      0.13124674	     22.66621468	     -8.59105507	     -3.35374159	     15.26364721	     -4.57504868	     -0.06741698	      0.00000000	     -6.96574665	      7.28939157	     -6.10016330	      6.98310084	     11.07924431	      0.33530792	      0.00000000	    -22.47873484	     -3.94948419	     -8.41867897	      6.30258959	     -2.72262349	      1.99195675	     31.27268685	     81.98010612	     14.31017481	    -11.61346169	     20.18246352	     31.52817000	     77.72280656
      0.00833330	      2.73852063	     -5.51017623	   -168.37378103	      0.25389611	      1.03827284	      0.13304926	     24.91531267	     -8.15636793	     -0.74844022	     12.86775496	     -8.71442319	     -1.48342466	      0.00000000	     -5.91633418	      7.43537496	     -5.98785281	      4.60962940	      8.69147234	      0.68586143	      0.00000000	    -18.47805216	     -4.34495262	     -8.14010814	      5.70250599	     -2.47758969	      1.65864351	     30.46981915	     82.45825127	     12.67161173	    -10.77972078	     18.28475151	     31.70759756	     77.59853731
      0.01666670	      4.16613077	     -5.59480625	   -168.75237703	      0.25302146	      1.03574687	      0.13400775	     26.06262856	     -8.82975282	     -1.14443442	     11.38746495	    -10.82934243	      0.18944918	      0.00000000	     -5.31999198	      7.85199589	     -6.67830015	      3.41288098	      8.35877431	      2.25172217	      0.00000000	    -16.78409981	     -4.91750690	     -8.81217155	      5.76879182	     -1.68402964	     -1.01331939	     29.93923068	     84.39414385	     11.08439877	     -9.70937736	     11.41762327	     32.29511487	     78.34910105
      0.02500000	      5.31120384	     -5.34658204	   -168.91723724	      0.25239803	      1.03280834	      0.13424976	     26.97693788	     -8.84339960	     -1.44051612	     10.36619963	    -11.36858313	      1.50747126	      0.00000000	     -4.30177415	      7.87655348	     -7.43936448	      2.91570823	      8.18403842	      3.68232390	      0.00000000	    -14.98887310	     -5.07214299	     -9.11346437	      5.42399827	     -1.14368120	     -2.69725550	     29.54726615	     86.74341738	      9.78119590	     -9.16979590	      8.13420153	     33.32338282	     80.58874029
      0.03333330	      5.50440896	     -5.07701251	   -169.03335960	      0.25267616	      1.03207217	      0.13419966	     27.11525184	     -8.61990819	     -1.37777553	     10.22774149	    -11.41516837	      1.65393206	      0.00000000	     -4.31036975	      7.72046467	     -7.22266888	      2.41648761	      8.31416968	      3.81095364	      0.00000000	    -14.71571203	     -4.91259324	     -8.88866536	      5.36885316	     -1.01021759	     -2.71820423	     29.50143542	     86.82331635	      9.77510909	     -9.02709510	      8.05065653	     33.46662543	     80.66481797
      0.04166670	      6.48946407	     -4.86984079	   -169.13665922	      0.25271603	      1.03005363	      0.13437671	     28.39075746	     -8.53568523	     -1.43983629	     10.73910626	    -11.12944460	      2.63141541	      0.00000000	     -3.14280838	      7.74637428	     -7.79088679	      2.52313996	      8.52399259	      4.33359308	      0.00000000	    -13.32501439	     -5.24018645	     -8.38488495	      4.75893374	     -1.04597374	     -3.50500061	     29.29454705	     87.49083964	      9.26040536	     -8.64169653	      6.96286249	     34.11007766	     81.34008634
      0.05000000	      6.50547806	     -4.73408214	   -169.20204518	      0.25311366	      1.02981029	      0.13444049	     28.46142036	     -8.39731964	     -1.31906786	     11.01898070	    -11.08696075	      2.71560473	      0.00000000	     -3.13660941	      7.66655813	     -7.90589951	      2.42775652	      8.63642401	      4.28885472	      0.00000000	    -13.25871409	     -5.19551823	     -8.47834709	      4.70138486	     -1.08656900	     -3.57248774	     29.29352449	     87.53827916	      9.20070322	     -8.55841274	      6.92090541	     34.14579778	     81.39596520
      0.05833330	      7.10243822	     -4.62523993	   -169.32780483	      0.25309489	      1.02908414	      0.13459497	     29.26602014	     -8.30272069	     -1.06330270	     11.44779675	    -10.90237449	      3.09823120	      0.00000000	     -2.45167839	      7.69737863	     -8.89170989	      2.49762780	      9.03210664	      5.39510503	      0.00000000	    -12.46923910	     -5.22475366	     -8.81904428	      4.58540174	     -0.52434546	     -6.73963241	     29.72079016	     92.04991481	      7.92911150	     -8.09468176	      2.87380492	     35.48254340	     86.27656727
      0.06666670	      7.08938028	     -4.65488444	   -169.30902082	      0.25333455	      1.02932328	      0.13491783	     29.20700455	     -8.35750808	     -0.96186568	     11.50752848	    -10.97997416	      3.27985696	      0.00000000	     -2.44296357	      7.77876242	     -8.95428627	      2.56026501	      9.18967219	      5.26284440	      0.00000000	    -12.35052759	     -5.32688659	     -8.80953204	      4.46317365	     -0.60628113	     -6.70943504	     29.67266623	     92.10722964	      7.90372951	     -7.93465312	      2.94843137	     35.51432245	     86.34123032
      0.07500000	      7.09475857	     -4.63137446	   -169.30861325	      0.25360182	      1.02985781	      0.13509614	     29.18257947	     -8.35810631	     -0.96141177	     11.51666131	    -10.97924200	      3.28369147	      0.00000000	     -2.42091306	      7.80450919	     -8.95880783	      2.55161496	      9.19438943	      5.25900879	      0.00000000	    -12.34673722	     -5.33046822	     -8.80127397	      4.46506185	     -0.60839961	     -6.70833213	     29.67331866	     92.10914448	      7.89801676	     -7.93458911	      2.94989662	     35.51354130	     86.34341492
      0.08333330	      7.67509787	     -4.65093474	   -169.39257733	      0.25342697	      1.02937617	      0.13540472	     29.80220623	     -8.47929179	     -1.12650144	     11.51277492	    -10.80211076	      4.25071422	      0.00000000	     -1.76893233	      7.98370977	     -9.25544380	      2.62971201	      9.25988580	      5.05811379	      0.00000000	    -11.40048119	     -5.54307658	     -8.03983072	      4.02159247	     -1.00680782	     -6.36628620	     29.57293396	     92.76095575	      7.77319518	     -7.70601415	      3.46354256	     35.61747483	     87.16572583
      0.09166670	      7.67198612	     -4.63713960	   -169.39790002	      0.25365728	      1.02978001	      0.13541315	     29.78180295	     -8.49144861	     -1.12657209	     11.50875158	    -10.80122470	      4.24997542	      0.00000000	     -1.74852045	      7.99653913	     -9.25724636	      2.61982529	      9.26317563	      5.05668442	      0.00000000	    -11.39826640	     -5.54459724	     -8.03709534	      4.02246967	     -1.00676330	     -6.36580544	     29.57396578	     92.76291935	      7.76572196	     -7.70574676	      3.46529905	     35.61396852	     87.16858575
      0.10000000	      7.72166611	     -4.69256039	   -169.36225461	      0.25367720	      1.03015729	      0.13551850	     29.66310697	     -8.57943901	     -1.15117758	     11.21647140	    -10.75869263	      4.24054161	      0.00000000	     -1.70031534	      8.08741677	     -9.30495455	      2.59546580	      9.31031114	      5.02042673	      0.00000000	    -11.35936528	     -5.55794497	     -7.96182723	      4.05407577	     -1.04085206	     -6.36417652	     29.59060443	     92.79058122	      7.60253943	     -7.66666864	      3.49969850	     35.55022701	     87.21272477
      0.10833330	      7.73605281	     -4.69938106	   -169.41016646	      0.25364497	      1.03043038	      0.13558057	     29.53310460	     -8.57630350	     -1.17681435	     10.94013742	    -10.72799417	      4.25677518	      0.00000000	     -1.66981198	      8.11368254	     -9.32531060	      2.59745272	      9.34286328	      5.00013038	      0.00000000	    -11.25663413	     -5.60705253	     -7.94892976	      4.01606883	     -1.11173193	     -6.36780059	     29.58278234	     92.82888135	      7.47389130	     -7.59475490	      3.54667526	     35.49484936	     87.27784112
      0.11666670	      7.73086193	     -4.69394678	   -169.40953746	      0.25382691	      1.03052182	      0.13558380	     29.51799890	     -8.58096696	     -1.17628770	     10.93867479	    -10.72741682	      4.25801853	      0.00000000	     -1.65206004	      8.11581251	     -9.32680524	      2.58751570	      9.34487668	      4.99900763	      0.00000000	    -11.25439998	     -5.60558959	     -7.94352171	      4.01583467	     -1.11177953	     -6.36736854	     29.58262960	     92.83030632	      7.46671962	     -7.59520046	      3.54755009	     35.49150506	     87.28017545
